{
    "asset" : {
        "generator" : "Khronos glTF Blender I/O v1.1.46",
        "version" : "2.0"
    },
    "scene" : 0,
    "scenes" : [
        {
            "name" : "Scene",
            "nodes" : [
                0
            ]
        }
    ],
    "nodes" : [
        {
            "mesh" : 0,
            "name" : "Icosphere"
        }
    ],
    "materials" : [
        {
            "doubleSided" : true,
            "emissiveFactor" : [
                0,
                0,
                0
            ],
            "name" : "Material.001",
            "pbrMetallicRoughness" : {
                "baseColorFactor" : [
                    0.8000000715255737,
                    0.17152081429958344,
                    0.08515650033950806,
                    1
                ],
                "metallicFactor" : 1,
                "roughnessFactor" : 0.3342856764793396
            }
        }
    ],
    "meshes" : [
        {
            "name" : "Icosphere",
            "primitives" : [
                {
                    "attributes" : {
                        "POSITION" : 0,
                        "NORMAL" : 1,
                        "TEXCOORD_0" : 2
                    },
                    "indices" : 3,
                    "material" : 0
                }
            ]
        }
    ],
    "accessors" : [
        {
            "bufferView" : 0,
            "componentType" : 5126,
            "count" : 30720,
            "max" : [
                4.1067681312561035,
                4.118499755859375,
                4.1045379638671875
            ],
            "min" : [
                -4.106767654418945,
                -4.118499755859375,
                -4.104538440704346
            ],
            "type" : "VEC3"
        },
        {
            "bufferView" : 1,
            "componentType" : 5126,
            "count" : 30720,
            "type" : "VEC3"
        },
        {
            "bufferView" : 2,
            "componentType" : 5126,
            "count" : 30720,
            "type" : "VEC2"
        },
        {
            "bufferView" : 3,
            "componentType" : 5123,
            "count" : 49896,
            "type" : "SCALAR"
        }
    ],
    "bufferViews" : [
        {
            "buffer" : 0,
            "byteLength" : 368640,
            "byteOffset" : 0
        },
        {
            "buffer" : 0,
            "byteLength" : 368640,
            "byteOffset" : 368640
        },
        {
            "buffer" : 0,
            "byteLength" : 245760,
            "byteOffset" : 737280
        },
        {
            "buffer" : 0,
            "byteLength" : 99792,
            "byteOffset" : 983040
        }
    ],
    "buffers" : [
        {
            "byteLength" : 1082832,
            "uri" : "data:application/octet-stream;base64,"
        }
    ]
}
