{
    "asset" : {
        "generator" : "Khronos glTF Blender I/O v1.1.46",
        "version" : "2.0"
    },
    "scene" : 0,
    "scenes" : [
        {
            "name" : "Scene",
            "nodes" : [
                0,
                1,
                2,
                3
            ]
        }
    ],
    "nodes" : [
        {
            "mesh" : 0,
            "name" : "Cube",
            "scale" : [
                30,
                0.10000002384185791,
                30
            ]
        },
        {
            "mesh" : 1,
            "name" : "Suzanne",
            "translation" : [
                -1.3605213165283203,
                2.8723716735839844,
                -10.249960899353027
            ]
        },
        {
            "mesh" : 2,
            "name" : "Torus",
            "scale" : [
                2.484708309173584,
                2.484708309173584,
                2.484708309173584
            ],
            "translation" : [
                -0.16624581813812256,
                2.3124566078186035,
                14.581607818603516
            ]
        },
        {
            "name" : "Sun",
            "rotation" : [
                0.2686735987663269,
                0.04983918368816376,
                -0.18760475516319275,
                0.9434696435928345
            ],
            "translation" : [
                1.2599999904632568,
                0,
                0
            ]
        }
    ],
    "materials" : [
        {
            "doubleSided" : true,
            "emissiveFactor" : [
                0,
                0,
                0
            ],
            "name" : "Material",
            "pbrMetallicRoughness" : {
                "baseColorFactor" : [
                    0.00452234223484993,
                    0.0005909622414037585,
                    0.006370291113853455,
                    1
                ],
                "metallicFactor" : 0
            }
        },
        {
            "doubleSided" : true,
            "emissiveFactor" : [
                0,
                0,
                0
            ],
            "name" : "Material.002",
            "pbrMetallicRoughness" : {
                "baseColorFactor" : [
                    0.8000000715255737,
                    0.683225691318512,
                    0.15684698522090912,
                    1
                ],
                "metallicFactor" : 1,
                "roughnessFactor" : 0.6714285612106323
            }
        },
        {
            "doubleSided" : true,
            "emissiveFactor" : [
                0,
                0,
                0
            ],
            "name" : "Material.001",
            "pbrMetallicRoughness" : {
                "baseColorFactor" : [
                    0.8000000715255737,
                    0.03793000429868698,
                    0.060418423265218735,
                    1
                ],
                "metallicFactor" : 0,
                "roughnessFactor" : 0.5
            }
        }
    ],
    "meshes" : [
        {
            "name" : "Cube",
            "primitives" : [
                {
                    "attributes" : {
                        "POSITION" : 0,
                        "NORMAL" : 1,
                        "TEXCOORD_0" : 2
                    },
                    "indices" : 3,
                    "material" : 0
                }
            ]
        },
        {
            "name" : "Suzanne",
            "primitives" : [
                {
                    "attributes" : {
                        "POSITION" : 4,
                        "NORMAL" : 5,
                        "TEXCOORD_0" : 6
                    },
                    "indices" : 7,
                    "material" : 1
                }
            ]
        },
        {
            "name" : "Torus",
            "primitives" : [
                {
                    "attributes" : {
                        "POSITION" : 8,
                        "NORMAL" : 9,
                        "TEXCOORD_0" : 10
                    },
                    "indices" : 11,
                    "material" : 2
                }
            ]
        }
    ],
    "accessors" : [
        {
            "bufferView" : 0,
            "componentType" : 5126,
            "count" : 24,
            "max" : [
                1,
                1,
                1
            ],
            "min" : [
                -1,
                -1,
                -1
            ],
            "type" : "VEC3"
        },
        {
            "bufferView" : 1,
            "componentType" : 5126,
            "count" : 24,
            "type" : "VEC3"
        },
        {
            "bufferView" : 2,
            "componentType" : 5126,
            "count" : 24,
            "type" : "VEC2"
        },
        {
            "bufferView" : 3,
            "componentType" : 5123,
            "count" : 36,
            "type" : "SCALAR"
        },
        {
            "bufferView" : 4,
            "componentType" : 5126,
            "count" : 1968,
            "max" : [
                1.3671875,
                0.984375,
                0.8515625
            ],
            "min" : [
                -1.3671875,
                -0.984375,
                -0.8515625
            ],
            "type" : "VEC3"
        },
        {
            "bufferView" : 5,
            "componentType" : 5126,
            "count" : 1968,
            "type" : "VEC3"
        },
        {
            "bufferView" : 6,
            "componentType" : 5126,
            "count" : 1968,
            "type" : "VEC2"
        },
        {
            "bufferView" : 7,
            "componentType" : 5123,
            "count" : 2904,
            "type" : "SCALAR"
        },
        {
            "bufferView" : 8,
            "componentType" : 5126,
            "count" : 18432,
            "max" : [
                1.284999966621399,
                0.2849978506565094,
                1.284999966621399
            ],
            "min" : [
                -1.284998893737793,
                -0.2849978506565094,
                -1.284999966621399
            ],
            "type" : "VEC3"
        },
        {
            "bufferView" : 9,
            "componentType" : 5126,
            "count" : 18432,
            "type" : "VEC3"
        },
        {
            "bufferView" : 10,
            "componentType" : 5126,
            "count" : 18432,
            "type" : "VEC2"
        },
        {
            "bufferView" : 11,
            "componentType" : 5123,
            "count" : 27648,
            "type" : "SCALAR"
        }
    ],
    "bufferViews" : [
        {
            "buffer" : 0,
            "byteLength" : 288,
            "byteOffset" : 0
        },
        {
            "buffer" : 0,
            "byteLength" : 288,
            "byteOffset" : 288
        },
        {
            "buffer" : 0,
            "byteLength" : 192,
            "byteOffset" : 576
        },
        {
            "buffer" : 0,
            "byteLength" : 72,
            "byteOffset" : 768
        },
        {
            "buffer" : 0,
            "byteLength" : 23616,
            "byteOffset" : 840
        },
        {
            "buffer" : 0,
            "byteLength" : 23616,
            "byteOffset" : 24456
        },
        {
            "buffer" : 0,
            "byteLength" : 15744,
            "byteOffset" : 48072
        },
        {
            "buffer" : 0,
            "byteLength" : 5808,
            "byteOffset" : 63816
        },
        {
            "buffer" : 0,
            "byteLength" : 221184,
            "byteOffset" : 69624
        },
        {
            "buffer" : 0,
            "byteLength" : 221184,
            "byteOffset" : 290808
        },
        {
            "buffer" : 0,
            "byteLength" : 147456,
            "byteOffset" : 511992
        },
        {
            "buffer" : 0,
            "byteLength" : 55296,
            "byteOffset" : 659448
        }
    ],
    "buffers" : [
        {
            "byteLength" : 714744,
            "uri" : "data:application/octet-stream;base64,"
        }
    ]
}
